# xmcd
#
# Track frame offsets:
#	150
#	14926
#	29424
#	47113
#	61709
#	81854
#	96734
#	116127
#	134388
#	151187
#	175319
#	196954
#	212641
#	230358
#
# Disc length: 3300 seconds
#
# Revision: 1
# Processed by: cddbd v1.5.2PL0 Copyright (c) Steve Scherf et al.
# Submitted via: audiograbber 1.83.01
#
DISCID=c60ce20e
DTITLE=Pastor Troy - Tool Muziq
DYEAR=2007
DGENRE=Rap
TTITLE0=Tool Muziq
TTITLE1=Saddam
TTITLE2=That's The Move
TTITLE3=I'm Fucked Up
TTITLE4=Wanting You (Feat. Gangsta Boo)
TTITLE5=The Belt
TTITLE6=No Money
TTITLE7=Hard For The Money
TTITLE8=Digital (Feat. Fabo and 2Dolla Of D4L
TTITLE9=In My Truck With Me (Feat. Sammy Sam)
TTITLE10=Still Looking (Feat. Mr. Mudd)
TTITLE11=I'm Down
TTITLE12=Hey Mama
TTITLE13=Will He Come Home Tonight
EXTD=
EXTT0=
EXTT1=
EXTT2=
EXTT3=
EXTT4=
EXTT5=
EXTT6=
EXTT7=
EXTT8=
EXTT9=
EXTT10=
EXTT11=
EXTT12=
EXTT13=
PLAYORDER=
